<?xml version="1.0" encoding="utf-8"?><svg xmlns="http://www.w3.org/2000/svg" xmlns:xlink="http://www.w3.org/1999/xlink" width="200" height="15" viewBox="0 0 200 15">
  <defs>
    <clipPath id="clip-underline">
      <rect width="200" height="15"/>
    </clipPath>
  </defs>
  <g id="underline" clip-path="url(#clip-underline)">
    <rect width="200" height="15" fill="rgba(16,138,0,0)"/>
    <g id="Group_57" data-name="Group 57" transform="translate(255.063 -74.306)">
      <path id="Path_502" data-name="Path 502" d="M221.078,683.79c-4.145,1.688-8.284,3.393-12.44,5.055-1.512.6-3.048,1.17-4.605,1.628-1.121.328-2.365.9-2.943-.98-.332-1.081-1.309-.682-2.076-.456a84.52,84.52,0,0,0-8.2,2.426c-1.5.612-3.156,1.21-4.343-.717-.538-.873-1.3-.8-2.14-.519q-2.316.768-4.668,1.431c-1.208.338-2.9.612-3.417-.454-1.181-2.443-2.756-1.565-4.4-1.118-1.835.5-3.688.934-5.5,1.509-1.933.614-3.365.112-3.621-2-.264-2.149-1.254-2.034-2.791-1.548q-5.055,1.588-10.165,2.984c-3.262.89-3.383.891-4.874-2.258a1.716,1.716,0,0,0-2.291-1.019c-4.4.9-8.872,1.042-13.3,1.616-1.621.209-3.181.734-4.234-1.277-.539-1.033-1.71-.579-2.611-.446-2.279.338-4.541.8-6.821,1.116-1.238.172-2.476.1-3.026-1.419A2.665,2.665,0,0,1,114,683.859c.681-.416,1.388-.784,2.566-1.445a12.142,12.142,0,0,0-5.376-.414c-8.11.5-16.238.885-24.21,2.676-1.418.319-2.42.061-2.864-1.44-.5-1.7.245-2.653,1.842-3.01a21.89,21.89,0,0,1,2.394-.463c7.4-.79,14.776-1.965,22.234-2.066,3.243-.043,6.451-.581,9.736-.259,2.68.26,4.794.96,5.724,3.728.542,1.609,1.547,1.7,2.881,1.3,3.9-1.153,7.859-2.151,11.708-3.476,2.25-.771,3.761-.365,4.527,1.923.82,2.442,2.342,2.185,4.211,1.542,2.7-.928,5.464-1.63,8.156-2.564,1.976-.685,3.557-.473,4.274,1.714.7,2.151,1.857,1.827,3.442,1.12a70.212,70.212,0,0,1,10-3.471c1.8-.5,3.254-.347,3.928,1.695.706,2.133,1.943,2.137,3.822,1.515,2.592-.859,5-2.1,7.515-3.121,1.857-.752,3.743-1.161,4.993,1.067.714,1.267,1.694,1.2,2.784.782,1.524-.578,3.016-1.25,4.554-1.78,2.137-.738,4.239-1.182,5.7,1.33.724,1.242,1.776,1,2.852.518,1.245-.551,2.5-1.091,3.763-1.582,4.622-1.791,5.677-1,5.764,4.246Z" transform="translate(-339.029 -602.753)" fill="#108a00" fill-rule="evenodd"/>
      <path id="Path_503" data-name="Path 503" d="M1729.125,680.771a51.483,51.483,0,0,1,10.13-5.1c1.17-.468,2.454-.924,3.239.5.978,1.777,2.191,1.157,3.471.623.875-.364,1.749-.733,2.631-1.08,2.893-1.148,3.1-1.182,4.968,1.365a1.778,1.778,0,0,0,2.38.8c2.028-.766,4.037-1.586,6.069-2.337,2.848-1.053,3.406-1.014,5.034,1.579.883,1.41,1.616,1.522,2.938.928,2.477-1.115,5.013-2.09,7.506-3.165,1.567-.674,3-.7,3.732,1.116.665,1.64,1.505,1.106,2.531.544a36.669,36.669,0,0,1,3.65-1.806c1.336-.553,2.788-1.571,4.1-.061,1.259,1.443.461,2.843-.356,4.173,0,0,.1-.131.1-.131a11.144,11.144,0,0,0-4.594,1.363c-4.767,2.318-9.551,4.6-14.385,6.758-3.647,1.629-3.792,1.488-4.784-2.279-1.391,0-2.57.786-3.871,1.111-1.389.344-2.627.9-4.248.118-1.738-.837-3.652.482-5.506.744-2.282.324-4.714,1.936-6.485-1.187-.4-.71-1.5-.308-2.294-.107-1.838.465-3.681.912-5.524,1.354-.929.222-2.041.56-2.695-.253-1.5-1.86-3.1-1.065-4.779-.532s-3.358,1.072-5.07,1.476c-1.368.322-2.7.373-3.195-1.518-.435-1.663.489-2.224,1.738-2.732,1.369-.559,2.818-1.034,3.717-2.4.005,0-.142.133-.142.133" transform="translate(-1847.223 -599.582)" fill="#108a00" fill-rule="evenodd"/>
    </g>
  </g>
</svg>
