<?xml version="1.0" encoding="utf-8"?><svg xmlns="http://www.w3.org/2000/svg" xmlns:xlink="http://www.w3.org/1999/xlink" width="200" height="200" viewBox="0 0 200 200">
  <defs>
    <clipPath id="clip-icon_11">
      <rect width="200" height="200"/>
    </clipPath>
  </defs>
  <g id="icon_11" data-name="icon – 11" clip-path="url(#clip-icon_11)">
    <rect width="200" height="200" fill="rgba(244,244,244,0)"/>
    <g id="settings">
      <path id="Path_430" data-name="Path 430" d="M162.5,200H37.5A37.5,37.5,0,0,1,0,162.5V37.5A37.5,37.5,0,0,1,37.5,0h125A37.5,37.5,0,0,1,200,37.5v125A37.5,37.5,0,0,1,162.5,200Z" fill="#fff"/>
    </g>
    <g id="piggy-bank" transform="translate(22.767 50)">
      <g id="Group_54" data-name="Group 54" transform="translate(34.4)">
        <path id="Path_496" data-name="Path 496" d="M59.567,50.354A25.177,25.177,0,1,0,34.4,25.167,25.171,25.171,0,0,0,59.567,50.354ZM50.775,35.125c.229-.833.458-1.646.708-2.479.292-.958.562-1.062,1.438-.6a14.07,14.07,0,0,0,4.75,1.417,5.857,5.857,0,0,0,3.1-.417,2.425,2.425,0,0,0,.583-4.25,7.6,7.6,0,0,0-1.771-1.042,42.053,42.053,0,0,1-4.854-2.167c-2.479-1.479-4.062-3.542-3.875-6.562.208-3.417,2.146-5.563,5.271-6.687,1.292-.479,1.292-.458,1.313-1.812V9.146c.021-1.021.208-1.187,1.208-1.229h.937c2.167,0,2.167,0,2.167,2.167,0,1.521,0,1.542,1.521,1.771a13.52,13.52,0,0,1,3.354,1,1,1,0,0,1,.646,1.312c-.271.938-.521,1.875-.833,2.792-.292.875-.562,1-1.4.6A10.711,10.711,0,0,0,59.713,16.5a3.667,3.667,0,0,0-1.417.292,2.015,2.015,0,0,0-.5,3.583,8.674,8.674,0,0,0,2.313,1.292,42.553,42.553,0,0,1,4.229,1.917,7.571,7.571,0,0,1,2.438,11.5,8.1,8.1,0,0,1-4.208,2.688A1.175,1.175,0,0,0,61.546,39.1c.042.75,0,1.479,0,2.229a.923.923,0,0,1-1,1.042c-.792.021-1.6.021-2.4,0a.972.972,0,0,1-1.042-1.1c0-.542,0-1.083-.021-1.625-.021-1.187-.042-1.25-1.208-1.437a14.555,14.555,0,0,1-4.271-1.229C50.588,36.5,50.483,36.229,50.775,35.125Z" transform="translate(-34.4)" fill="#108a00"/>
        <path id="Path_497" data-name="Path 497" d="M131.3,141.209h-2.937a32.91,32.91,0,0,0-10.792-15.292,2.814,2.814,0,0,0-.083-.583,11.84,11.84,0,0,1,1.771-9.562,2.391,2.391,0,0,0-2.312-3.646,17.659,17.659,0,0,0-9.687,4.063,9.414,9.414,0,0,0-2.958,4.875A30.292,30.292,0,0,1,56.429,138a29.437,29.437,0,0,0-1.9,19.333h0a.364.364,0,0,0,.021.1,30.071,30.071,0,0,0,2.5,6.646,34.875,34.875,0,0,0,6.4,9.667A18.437,18.437,0,0,1,68.408,185.6v1.125h0a2.181,2.181,0,0,0,2.167,2.021H83.742a2.165,2.165,0,0,0,2.167-2.167v-3.25a45.29,45.29,0,0,0,5.854.4,42.043,42.043,0,0,0,4.6-.25v3.1a2.165,2.165,0,0,0,2.167,2.167h13.208a2.165,2.165,0,0,0,2.167-2.167v-3.25a13,13,0,0,1,4.479-9.083l.438-.375c.042-.042.083-.062.125-.1h0a32.583,32.583,0,0,0,9.625-14.708h2.771a4,4,0,0,0,4-4v-9.854A4.064,4.064,0,0,0,131.3,141.209Zm-16.479.708a3.271,3.271,0,1,1,3.271-3.271A3.263,3.263,0,0,1,114.825,141.917Z" transform="translate(-49.679 -88.75)" fill="#108a00"/>
      </g>
    </g>
  </g>
</svg>
