<?xml version="1.0" encoding="utf-8"?><svg xmlns="http://www.w3.org/2000/svg" xmlns:xlink="http://www.w3.org/1999/xlink" width="200" height="200" viewBox="0 0 200 200">
  <defs>
    <clipPath id="clip-icon_12">
      <rect width="200" height="200"/>
    </clipPath>
  </defs>
  <g id="icon_12" data-name="icon – 12" clip-path="url(#clip-icon_12)">
    <rect width="200" height="200" fill="rgba(244,244,244,0)"/>
    <g id="settings">
      <path id="Path_430" data-name="Path 430" d="M162.5,200H37.5A37.5,37.5,0,0,1,0,162.5V37.5A37.5,37.5,0,0,1,37.5,0h125A37.5,37.5,0,0,1,200,37.5v125A37.5,37.5,0,0,1,162.5,200Z" fill="#fff"/>
    </g>
    <path id="Discount_1_" d="M39.227,42.5a3.409,3.409,0,1,1,3.409,3.409A3.413,3.413,0,0,1,39.227,42.5ZM65.364,61.819a3.409,3.409,0,1,0,3.409,3.409A3.413,3.413,0,0,0,65.364,61.819Zm30.745,1.657c-.174.767.819,2.767,1.476,4.091,1.267,2.552,2.7,5.444,1.47,8-1.25,2.59-4.439,3.273-7.253,3.874-1.424.306-3.575.766-4.04,1.347s-.444,2.8-.426,4.265c.036,2.866.076,6.116-2.158,7.9S79.8,93.97,77.02,93.3c-1.431-.343-3.587-.865-4.282-.527-.657.316-1.578,2.3-2.189,3.607-1.219,2.622-2.6,5.591-5.426,6.233a4.73,4.73,0,0,1-1.05.118c-2.306,0-4.366-1.685-6.367-3.322-1.223-1-2.9-2.372-3.708-2.372s-2.484,1.37-3.707,2.372c-2.192,1.792-4.678,3.83-7.416,3.2-2.825-.642-4.208-3.613-5.428-6.232-.609-1.31-1.532-3.291-2.187-3.608-.7-.34-2.855.184-4.283.527-2.781.669-5.931,1.424-8.158-.352s-2.2-5.036-2.158-7.9c.018-1.463.045-3.672-.425-4.262s-2.616-1.042-4.04-1.347c-2.816-.6-6-1.285-7.255-3.876-1.232-2.551.206-5.444,1.472-8,.658-1.323,1.651-3.324,1.477-4.091-.157-.687-1.868-2.016-3-2.9C6.6,58.8,4,56.782,4,53.864s2.6-4.935,4.892-6.715c1.132-.878,2.843-2.207,3-2.9.174-.767-.819-2.768-1.476-4.092-1.267-2.552-2.7-5.444-1.47-8,1.25-2.59,4.439-3.273,7.253-3.875,1.424-.3,3.575-.765,4.039-1.345s.445-2.8.427-4.265c-.036-2.867-.076-6.117,2.158-7.9s5.378-1.02,8.158-.352c1.431.343,3.588.863,4.282.528.657-.317,1.578-2.3,2.189-3.608,1.219-2.62,2.6-5.59,5.426-6.232,2.734-.62,5.225,1.409,7.416,3.2,1.224,1,2.9,2.372,3.708,2.372s2.484-1.37,3.707-2.37c2.193-1.794,4.678-3.828,7.417-3.2,2.824.642,4.207,3.612,5.427,6.233.61,1.31,1.532,3.291,2.189,3.608.7.335,2.852-.185,4.281-.528,2.781-.668,5.932-1.425,8.159.352s2.2,5.035,2.158,7.9c-.018,1.462-.045,3.673.425,4.262s2.616,1.042,4.04,1.347c2.816.6,6,1.284,7.255,3.875,1.232,2.552-.206,5.445-1.472,8-.658,1.324-1.651,3.324-1.477,4.091.157.689,1.868,2.017,3,2.9,2.292,1.78,4.891,3.8,4.891,6.715s-2.6,4.935-4.892,6.715c-1.132.88-2.843,2.207-3,2.9ZM42.636,50.455A7.955,7.955,0,1,0,34.682,42.5,7.964,7.964,0,0,0,42.636,50.455Zm28.88-10.893A2.272,2.272,0,0,0,68.3,36.348L36.484,68.166A2.272,2.272,0,1,0,39.7,71.38Zm1.8,25.666a7.955,7.955,0,1,0-7.955,7.955A7.965,7.965,0,0,0,73.318,65.228Z" transform="translate(46 46.135)" fill="#108a00"/>
  </g>
</svg>
