<?xml version="1.0" encoding="utf-8"?><svg xmlns="http://www.w3.org/2000/svg" xmlns:xlink="http://www.w3.org/1999/xlink" width="200" height="200" viewBox="0 0 200 200">
  <defs>
    <clipPath id="clip-icon_2">
      <rect width="200" height="200"/>
    </clipPath>
  </defs>
  <g id="icon_2" data-name="icon – 2" clip-path="url(#clip-icon_2)">
    <rect width="200" height="200" fill="rgba(244,244,244,0)"/>
    <g id="settings">
      <path id="Path_430" data-name="Path 430" d="M162.5,200H37.5A37.5,37.5,0,0,1,0,162.5V37.5A37.5,37.5,0,0,1,37.5,0h125A37.5,37.5,0,0,1,200,37.5v125A37.5,37.5,0,0,1,162.5,200Z" fill="#fff"/>
    </g>
    <g id="XMLID_476_" transform="translate(50 50)">
      <path id="XMLID_503_" d="M217.412,38.909a3.372,3.372,0,0,0,0-4.768l-5.06-5.06a3.372,3.372,0,0,0-4.279-.4l-10.639,7.231L204.621,25.2a3.371,3.371,0,0,0-.416-4.263L193.229,9.958a3.371,3.371,0,0,0-3.847-.654l-1.9.914.909-2.016a3.372,3.372,0,0,0-.69-3.77L184.259.988a3.372,3.372,0,0,0-4.768,0L152.729,27.749l37.922,37.922Z" transform="translate(-118.4 0)" fill="#108a00"/>
      <path id="XMLID_1199_" d="M29.346,145.622,21.6,153.369a3.371,3.371,0,0,0,0,4.768l7.349,7.349a6.569,6.569,0,0,1-1.12,10.187C6.234,189.438,4.221,191.451,3.56,192.112A12.175,12.175,0,0,0,20.778,209.33c.662-.661,2.675-2.675,16.439-24.268a6.579,6.579,0,0,1,10.187-1.12l7.349,7.349a3.372,3.372,0,0,0,4.768,0l7.747-7.747Zm-13.6,58.262a4.765,4.765,0,1,1,0-6.739A4.765,4.765,0,0,1,15.745,203.884Z" transform="translate(0 -112.89)" fill="#108a00"/>
    </g>
  </g>
</svg>
